<svg width="16" height="16" viewBox="0 0 16 16" fill="none" xmlns="http://www.w3.org/2000/svg">
<g clip-path="url(#clip0_0_11)">
<path d="M4.66669 7.49999H4.16669V7.99999V10C4.16669 10.3094 4.2896 10.6062 4.5084 10.825C4.72719 11.0437 5.02393 11.1667 5.33335 11.1667H10.6667C10.9761 11.1667 11.2729 11.0437 11.4916 10.825C11.7104 10.6062 11.8334 10.3094 11.8334 10V7.99999V7.49999H11.3334H10H9.50002V7.99999V8.83333H6.50002V7.99999V7.49999H6.00002H4.66669ZM14.7845 15.4512L15.1381 15.8047L14.7845 15.4512C14.7533 15.4824 14.7109 15.5 14.6667 15.5H1.33335C1.28915 15.5 1.24676 15.4824 1.2155 15.4512C1.18425 15.4199 1.16669 15.3775 1.16669 15.3333V5.99999C1.16669 5.95579 1.18425 5.9134 1.2155 5.88214C1.24676 5.85089 1.28915 5.83333 1.33335 5.83333H14.6667C14.7109 5.83333 14.7533 5.85089 14.7845 5.88214C14.8158 5.9134 14.8334 5.95579 14.8334 5.99999V15.3333C14.8334 15.3775 14.8158 15.4199 14.7845 15.4512Z" fill="#0192FE" stroke="#0192FE"/>
<path d="M3.16669 3.50001V3.16667H12.8334V3.50001H3.16669Z" fill="#0192FE" stroke="#0192FE"/>
<path d="M11.3334 0H4.66669V1.33333H11.3334V0Z" fill="#0192FE"/>
</g>
<defs>
<clipPath id="clip0_0_11">
<rect width="16" height="16" fill="white"/>
</clipPath>
</defs>
</svg>
