<svg width="16" height="16" viewBox="0 0 16 16" fill="none" xmlns="http://www.w3.org/2000/svg">
<g clip-path="url(#clip0_0_37)">
<path d="M14 0.833333H3.16669V0.5H14.6667C14.7585 0.5 14.8334 0.574809 14.8334 0.666667V14.1667H14.5V1.33333V0.833333H14Z" fill="#0192FE" stroke="#0192FE"/>
<path d="M7.33335 13.1667H7.83335V12.6667V11.3333V10.8333H7.33335H3.33335H2.83335V11.3333V12.6667V13.1667H3.33335H7.33335ZM10 10.5H10.5V10V8.66667V8.16667H10H3.33335H2.83335V8.66667V10V10.5H3.33335H10ZM10 7.83334H10.5V7.33334V6V5.5H10H3.33335H2.83335V6V7.33334V7.83334H3.33335H10ZM1.33335 3.16667H12C12.0919 3.16667 12.1667 3.24148 12.1667 3.33334V15.3333C12.1667 15.4252 12.0919 15.5 12 15.5H1.33335C1.2415 15.5 1.16669 15.4252 1.16669 15.3333V3.33334C1.16669 3.24148 1.2415 3.16667 1.33335 3.16667Z" fill="#0192FE" stroke="#0192FE"/>
</g>
<defs>
<clipPath id="clip0_0_37">
<rect width="16" height="16" fill="white"/>
</clipPath>
</defs>
</svg>
