<svg width="24" height="24" viewBox="0 0 24 24" fill="none" xmlns="http://www.w3.org/2000/svg">
<path d="M8.00024 5.5L8.22171 4.1712C8.38244 3.20683 9.21682 2.5 10.1945 2.5L13.806 2.5C14.7837 2.5 15.618 3.20683 15.7788 4.1712L16.0002 5.5" stroke="#8B8F92" stroke-width="1.5" stroke-linecap="round"/>
<path d="M8 5.5H4C2.89543 5.5 2 6.39543 2 7.5V19.5C2 20.6046 2.89543 21.5 4 21.5H20C21.1046 21.5 22 20.6046 22 19.5V7.5C22 6.39543 21.1046 5.5 20 5.5H16" stroke="#8B8F92" stroke-width="1.5" stroke-linecap="round"/>
<path d="M16.2106 13.5833C16.2106 11.2515 14.3255 9.36111 12.0001 9.36111C9.67467 9.36111 7.78955 11.2515 7.78955 13.5833C7.78955 15.9152 9.67467 17.8056 12.0001 17.8056C14.3255 17.8056 16.2106 15.9152 16.2106 13.5833Z" stroke="#8B8F92" stroke-width="1.5"/>
</svg>
