<svg width="16" height="16" viewBox="0 0 16 16" fill="none" xmlns="http://www.w3.org/2000/svg">
<g clip-path="url(#clip0_0_26)">
<path d="M4.33331 0.666656H11.6666C13.3333 0.666656 14.6666 1.99999 14.6666 3.66666C14.6666 5.33332 13.3333 6.66666 11.6666 6.66666H4.33331" stroke="#20B7F2" stroke-width="1.2" stroke-miterlimit="10"/>
<path d="M4.33331 6.66666C5.99017 6.66666 7.33331 5.32351 7.33331 3.66666C7.33331 2.0098 5.99017 0.666656 4.33331 0.666656C2.67646 0.666656 1.33331 2.0098 1.33331 3.66666C1.33331 5.32351 2.67646 6.66666 4.33331 6.66666Z" stroke="#20B7F2" stroke-width="1.2" stroke-miterlimit="10" stroke-linecap="square"/>
<path d="M11.6666 15.3333H4.33331C2.66665 15.3333 1.33331 14 1.33331 12.3333C1.33331 10.6666 2.66665 9.33331 4.33331 9.33331H11.6666" stroke="#20B7F2" stroke-width="1.2" stroke-miterlimit="10"/>
<path d="M11.6666 15.3333C13.3235 15.3333 14.6666 13.9902 14.6666 12.3333C14.6666 10.6765 13.3235 9.33331 11.6666 9.33331C10.0098 9.33331 8.66663 10.6765 8.66663 12.3333C8.66663 13.9902 10.0098 15.3333 11.6666 15.3333Z" stroke="#20B7F2" stroke-width="1.2" stroke-miterlimit="10" stroke-linecap="square"/>
</g>
<defs>
<clipPath id="clip0_0_26">
<rect width="16" height="16" fill="white"/>
</clipPath>
</defs>
</svg>
