<svg width="24" height="24" viewBox="0 0 24 24" fill="none" xmlns="http://www.w3.org/2000/svg">
<path d="M12.7705 18C12.6312 18.7097 12.6393 19.6482 12.6778 20.3748C12.7096 20.9742 12 21.5 11 21.5C9.99997 21.5 9.66242 21.2924 9.51227 20.9504C9.19856 20.2357 8.71707 18.965 8.77048 18C8.81952 17.1138 9.34435 16.0387 9.75956 15.3158C9.96131 14.9646 9.7124 14.5 9.30734 14.5L3.73008 14.5C2.46146 14.5 1.51338 13.3341 1.77212 12.0921L3.43879 4.09209C3.63201 3.16465 4.4494 2.5 5.39675 2.5H14.2705C15.375 2.5 16.2705 3.39543 16.2705 4.5L16.2705 12.3254C16.2705 12.4385 16.2341 12.5458 16.1644 12.6348C15.6063 13.3482 13.0257 16.6994 12.7705 18Z" stroke="#8B8F92" stroke-width="1.5" stroke-linecap="round" stroke-linejoin="round"/>
<path d="M22.2705 4.5V10.5C22.2705 11.6046 21.375 12.5 20.2705 12.5H18.2705C17.1659 12.5 16.2705 11.6046 16.2705 10.5V4.5C16.2705 3.39543 17.1659 2.5 18.2705 2.5H20.2705C21.375 2.5 22.2705 3.39543 22.2705 4.5Z" stroke="#8B8F92" stroke-width="1.5"/>
</svg>
