<svg width="16" height="16" viewBox="0 0 16 16" fill="none" xmlns="http://www.w3.org/2000/svg">
<g clip-path="url(#clip0_1_975)">
<path d="M13.3334 6.66667V5.33333C13.3334 3.91885 12.7715 2.56229 11.7713 1.5621C10.7711 0.561903 9.41451 0 8.00002 0C6.58553 0 5.22898 0.561903 4.22878 1.5621C3.22859 2.56229 2.66669 3.91885 2.66669 5.33333V6.66667C2.65032 7.07331 2.55028 7.47222 2.37283 7.83847C2.19539 8.20472 1.94433 8.53045 1.63535 8.79533C1.08015 9.26842 0.73241 9.94021 0.666687 10.6667C0.666687 12.3333 3.40802 13.3333 8.00002 13.3333C12.592 13.3333 15.3334 12.3333 15.3334 10.6667C15.2676 9.94021 14.9199 9.26842 14.3647 8.79533C14.0557 8.53045 13.8047 8.20472 13.6272 7.83847C13.4498 7.47222 13.3497 7.07331 13.3334 6.66667Z" fill="white"/>
<path d="M6.09668 14.6C6.22374 15.0053 6.47688 15.3595 6.81922 15.611C7.16157 15.8624 7.57524 15.998 8.00001 15.998C8.42478 15.998 8.83846 15.8624 9.1808 15.611C9.52315 15.3595 9.77628 15.0053 9.90335 14.6C9.30735 14.644 8.67401 14.6667 8.00001 14.6667C7.32601 14.6667 6.69268 14.6453 6.09668 14.6Z" fill="white"/>
</g>
<defs>
<clipPath id="clip0_1_975">
<rect width="16" height="16" fill="white"/>
</clipPath>
</defs>
</svg>
