<svg width="24" height="24" viewBox="0 0 24 24" fill="none" xmlns="http://www.w3.org/2000/svg">
<path d="M12.0001 6.36393L13.1881 5.17178C15.1637 3.18937 18.2266 3.12908 20.2694 5.03239V5.03239C22.5683 7.17436 22.6876 10.9449 20.5294 13.2474L18.12 15.8178L13.2677 20.315C12.5403 20.9892 11.4587 20.9893 10.731 20.3154L9.11105 18.8149" stroke="#8B8F92" stroke-width="1.5" stroke-linecap="round"/>
<path d="M11.9993 6.36396L10.8117 5.17211C8.83626 3.18954 5.77326 3.12915 3.73046 5.0325V5.0325C1.43162 7.17441 1.3123 10.9448 3.47049 13.2473L5.87994 15.8178L10.7314 20.3149C11.4588 20.9892 12.5403 20.9895 13.268 20.3157L14.8888 18.8149" stroke="#8B8F92" stroke-width="1.5" stroke-linecap="round"/>
</svg>
